<?xml version="1.0" encoding="UTF-8" standalone="no"?>
<!-- Created with Inkscape (http://www.inkscape.org/) -->

<svg
   xmlns:dc="http://purl.org/dc/elements/1.1/"
   xmlns:cc="http://creativecommons.org/ns#"
   xmlns:rdf="http://www.w3.org/1999/02/22-rdf-syntax-ns#"
   xmlns:svg="http://www.w3.org/2000/svg"
   xmlns="http://www.w3.org/2000/svg"
   xmlns:sodipodi="http://sodipodi.sourceforge.net/DTD/sodipodi-0.dtd"
   xmlns:inkscape="http://www.inkscape.org/namespaces/inkscape"
   width="1052.3622"
   height="744.09448"
   id="svg2"
   version="1.1"
   inkscape:version="0.48.4 r9939"
   sodipodi:docname="logo-galgo-ferrocarriles-argentinos.svg"
   inkscape:export-filename="/home/enigma/Desktop/Logo galgo Ferrocarriles Argentinos.png"
   inkscape:export-xdpi="72.00943"
   inkscape:export-ydpi="72.00943">
  <defs
     id="defs4" />
  <sodipodi:namedview
     id="base"
     pagecolor="#ffffff"
     bordercolor="#666666"
     borderopacity="1.0"
     inkscape:pageopacity="0.0"
     inkscape:pageshadow="2"
     inkscape:zoom="0.68539683"
     inkscape:cx="505.75497"
     inkscape:cy="372.04724"
     inkscape:document-units="mm"
     inkscape:current-layer="layer2"
     showgrid="false"
     inkscape:window-width="1280"
     inkscape:window-height="727"
     inkscape:window-x="-4"
     inkscape:window-y="46"
     inkscape:window-maximized="1"
     units="mm" />
  <metadata
     id="metadata7">
    <rdf:RDF>
      <cc:Work
         rdf:about="">
        <dc:format>image/svg+xml</dc:format>
        <dc:type
           rdf:resource="http://purl.org/dc/dcmitype/StillImage" />
        <dc:title />
      </cc:Work>
    </rdf:RDF>
  </metadata>
  <g
     inkscape:groupmode="layer"
     id="layer2"
     inkscape:label="vector"
     transform="translate(0,-308.2677)">
    <g
       id="g3813"
       transform="matrix(1.3639193,0,0,1.3872728,1322.6463,510.88967)"
       style="fill:#110c0f;fill-opacity:1;stroke:none">
      <path
         sodipodi:nodetypes="csssssssssssssssccsssssssssssssscsssssscsssssssssssssssssssssc"
         inkscape:connector-curvature="0"
         id="path2996"
         d="m -707.5,39.862184 c -13.12981,-6.942856 -44.17694,-3.503543 -63.92857,4.642857 -57.31342,23.63845 -112.76874,26.457268 -151.78572,3.571429 -4.14476,-2.431152 -9.90222,-0.262007 -6.51786,4.464284 18.44799,25.762824 100.08403,27.218285 157.23215,4.107144 14.10118,-5.702627 48.62529,-5.776023 45.35714,-5 -27.5968,6.552876 -39.32272,52.153842 -64.28571,64.285712 -15.85161,7.70379 -20.01404,-2.21788 -29.64286,0 -9.54671,2.19897 -16.73155,11.46329 -26.42857,12.85714 -9.20182,1.32267 -18.21793,-5.15875 -27.5,-4.64285 -6.92275,0.38477 -13.13932,4.71247 -20,5.71428 -20.1449,2.9416 -35.29878,1.5824 -61.07143,0.71429 -1.43271,-0.0483 -2.54353,1.59023 -3.21429,2.85714 -1.29204,2.44036 -1.69865,5.52518 -1.07142,8.21429 0.2925,1.25403 0.85518,3.20622 2.14285,3.21428 21.33871,0.13365 43.42065,-1.97192 63.39286,-1.42857 6.68674,0.18191 22.14285,4.10714 22.14285,4.10714 0,0 -14.41589,10.84098 -29.10714,16.16072 -1.17449,0.5699 -3.06115,1.63085 -3.61607,2.81249 -1.23386,2.62737 0.0497,6.20653 2.00893,8.34822 1.02983,1.12573 2.76551,1.73668 4.28572,1.60714 19.19521,-1.6357 30.8533,-14.88262 41.25,-22.5 2.97618,-2.18056 7.53391,-3.49073 10.89285,-1.96428 34.80806,15.81827 67.50413,13.93096 111.06816,-8.02253 42.04067,-21.18581 72.6567,-39.20688 116.42008,-41.16372 9.64027,-0.43106 11.60664,2.2438 17.42513,3.28299 6.47114,1.15576 12.98279,2.08068 19.44544,3.283 4.99851,0.92993 9.70327,9.07684 15.40483,12.37437 28.63976,16.56397 54.84009,54.87188 101.26779,25.75889 8.43962,-5.29215 17.18403,-4.80912 22.47589,3.53553 13.474,21.24693 22.86823,34.87429 51.51778,33.58758 23.99474,-1.07765 70.88471,-8.5638 96.9567,1.02284 16.0912,5.91672 33.41648,24.39345 37.64613,38.12057 11.42008,0.52625 11.24894,0.0397 18.43528,0.50507 3.63648,0.23549 1.2985,-8.26689 -1.26269,-10.85914 -7.36381,-7.45311 -19.04783,-8.72868 -20.96066,-17.42513 -0.39701,-1.80497 -0.61177,-2.23315 1.22679,-2.42078 8.15705,-0.83241 21.21509,9.21531 34.88616,12.01723 2.7226,0.558 5.68771,1.10244 8.33376,0.25254 3.83114,-1.23055 4.59745,-2.22557 9.41788,-8.39504 -17.51802,-13.1821 -29.92108,-8.56715 -39.21738,-12.31309 -29.43199,-11.85961 -64.32371,-33.07155 -105.56094,-31.31473 -22.3807,0.95348 -50.09729,-21.51819 -49.88,-53.29823 0.0575,-8.414377 13.73184,-11.335001 21.59573,-9.836299 8.83547,1.683865 8.67043,-14.803162 32.82995,-1.767767 10.68645,5.765928 5.80957,6.618049 33.0825,8.586297 16.97715,1.225216 36.77136,0.579974 52.52793,8.586289 3.39649,1.72584 4.31442,-6.10005 14.64721,-6.313446 2.10572,-0.04349 1.35732,-3.430345 0.28318,-5.242024 -5.50722,-9.288732 -20.49965,-10.286985 -28.31491,-17.738946 -3.51458,-3.351197 -5.28914,-9.606018 -9.59645,-13.131984 -17.67155,-14.465928 -24.929,-18.596084 -53.03301,-32.072343 -4.61051,-2.210802 -8.10839,0.125756 -11.61675,3.030458 -7.9764,6.603945 -21.43382,13.408211 -31.06219,9.596449 -1.78652,-0.707265 -3.22417,-3.181871 -2.77792,-5.050762 0.97066,-4.065122 11.12773,-2.963899 10.35406,-7.071068 -0.6237,-3.311048 -6.50446,-1.865242 -9.84899,-2.272843 -10.61358,-1.293485 -21.64515,1.860277 -32.07234,-0.505077 -22.19239,-5.03423 -50.98802,-9.746857 -72.22591,-9.343911 -27.86027,0.528593 -53.20499,4.090916 -83.33758,6.565992 -7.0971,0.582952 -14.59755,-3.344985 -21.71828,-3.282996 -38.95879,0.33915 -73.43134,-1.501303 -115.29807,16.592905 z"
         style="color:#000000;fill:#110c0f;fill-opacity:1;stroke:none;stroke-width:2.57592678;marker:none;visibility:visible;display:inline;overflow:visible;enable-background:accumulate" />
      <path
         sodipodi:nodetypes="cccc"
         inkscape:connector-curvature="0"
         id="path3811"
         d="m -349.01786,27.808608 c 0.86183,1.738402 0.58866,2.990378 -1.875,3.303572 -1.39104,-1.101191 -9.739,-2.202381 -16.78571,-3.303572 6.59085,-0.741236 13.43514,-1.989333 18.66071,0 z"
         style="color:#000000;fill:#110c0f;fill-opacity:1;stroke:none;stroke-width:3.54330707;marker:none;visibility:visible;display:inline;overflow:visible;enable-background:accumulate" />
    </g>
  </g>
</svg>
